<svg width="18" height="21" viewBox="0 0 18 21" fill="none" xmlns="http://www.w3.org/2000/svg">
<path d="M9 0C4.03157 0 0 3.9375 0 8.79C0 17.9325 8.63908 20.9175 8.72355 20.955C8.8157 20.985 8.90017 21 9 21C9.09215 21 9.1843 20.985 9.26877 20.955C9.36092 20.925 18 17.94 18 8.79C18 3.9375 13.9608 0 9 0ZM9 13.4025C6.36604 13.4025 4.23123 11.31 4.23123 8.7525C4.23123 6.18 6.37372 4.095 9 4.095C11.6263 4.095 13.7611 6.1875 13.7611 8.7525C13.7611 11.31 11.6263 13.4025 9 13.4025Z" fill="white"/>
</svg>
