<svg width="17" height="29" viewBox="0 0 17 29" fill="none" xmlns="http://www.w3.org/2000/svg">
<path d="M4.18973 28.0465C4.18973 23.3729 4.18973 18.7391 4.18973 14.0576C3.10019 14.0576 2.04417 14.0576 0.963013 14.0576C0.963013 12.4707 0.963013 10.9313 0.963013 9.34439C1.10549 9.33646 1.24797 9.32059 1.39883 9.32059C2.17827 9.32059 2.96609 9.30472 3.74554 9.32852C4.08916 9.33646 4.20649 9.24918 4.19811 8.91592C4.18135 7.70984 4.18135 6.5117 4.18973 5.30563C4.19811 3.9488 4.60041 2.71892 5.6229 1.73501C6.61187 0.782849 7.87741 0.267094 9.25191 0.187747C11.4645 0.0687262 13.6855 0.0845954 15.9065 0.0449219C15.9316 0.0449219 15.9568 0.0687259 16.0071 0.09253C16.0071 1.68741 16.0071 3.29022 16.0071 4.9327C15.8478 4.94063 15.697 4.94857 15.5545 4.94857C14.5488 4.94857 13.543 4.94857 12.5373 4.94857C11.5232 4.9565 10.9281 5.5278 10.9281 6.47203C10.9281 7.36865 10.9281 8.27321 10.9365 9.16983C10.9365 9.19363 10.9533 9.21744 10.9784 9.30472C12.6379 9.30472 14.3141 9.30472 16.0741 9.30472C15.8562 10.9155 15.6551 12.4548 15.4372 14.0497C13.9202 14.0497 12.4367 14.0497 10.9114 14.0497C10.9114 18.747 10.9114 23.3968 10.9114 28.0624C8.65686 28.0465 6.46101 28.0465 4.18973 28.0465Z" fill="white"/>
</svg>
