<svg width="40" height="37" viewBox="0 0 40 37" fill="none" xmlns="http://www.w3.org/2000/svg">
<path d="M0 16.8718C0.180624 16.4815 0.153474 16.0572 0.224471 15.6508C0.803928 12.3075 2.28442 9.3338 4.70248 6.75137C7.70104 3.55232 11.4889 1.48091 16.0379 0.689865C22.3253 -0.402884 27.9758 0.935946 32.9351 4.6083C33.0259 4.67524 33.1126 4.74784 33.2024 4.81478C33.2419 4.83576 33.2835 4.85343 33.3266 4.86758C33.3266 4.53664 33.3266 4.22834 33.3266 3.91909C33.3151 3.13842 33.881 2.56517 34.6682 2.56423C35.4356 2.56423 36.013 3.12993 36.013 3.8842C36.013 5.16583 36.013 6.44715 36.013 7.72815C36.013 8.41171 35.6998 8.85956 35.0838 9.04812C34.4887 9.23669 33.9583 9.06604 33.4801 8.53522C31.2768 6.0565 28.2817 4.25054 24.902 3.36281C23.8052 3.07447 22.6806 2.88032 21.5433 2.78297C21.3063 2.76128 21.3261 2.86122 21.3272 2.99699C21.3272 3.65509 21.3272 4.31351 21.3272 4.97224C21.3319 5.13357 21.3009 5.29414 21.2359 5.44449C21.1709 5.59484 21.0733 5.73193 20.9487 5.84771C20.8242 5.96349 20.6753 6.05562 20.5108 6.11868C20.3463 6.18174 20.1695 6.21445 19.9907 6.2149C19.2411 6.2149 18.669 5.68219 18.6627 4.96846C18.6564 4.25473 18.6627 3.55421 18.6554 2.85179C18.6499 2.82917 18.6404 2.80751 18.6272 2.78768C10.3697 3.34867 3.44333 9.31966 2.75111 17.1546H5.16813C5.95118 17.1546 6.55361 17.676 6.55883 18.3492C6.56405 19.0224 5.97519 19.5551 5.18692 19.5655C4.45677 19.5711 3.72767 19.5711 2.9996 19.5655C2.80227 19.5655 2.74277 19.5919 2.76782 19.7984C3.36642 24.7357 5.93865 28.6013 10.4845 31.3953C12.608 32.6946 15.0399 33.525 17.5842 33.8193C17.8285 33.8495 18.0832 33.8429 18.315 33.9042C18.67 33.9985 18.6815 33.8448 18.6763 33.5987C18.6627 32.9642 18.6679 32.3287 18.6763 31.6942C18.6753 31.3753 18.8146 31.0692 19.0636 30.8432C19.3125 30.6171 19.6507 30.4896 20.0038 30.4887C20.3569 30.4879 20.6958 30.6137 20.9462 30.8385C21.1965 31.0633 21.3377 31.3687 21.3386 31.6876C21.348 32.3579 21.3439 33.0283 21.3386 33.6986C21.3386 33.8561 21.3313 33.9438 21.583 33.9211C25.6433 33.5525 29.1514 32.1024 32.0727 29.5332C34.7476 27.1827 36.4024 24.3306 37.0425 21.0052C37.1312 20.5441 37.1907 20.0784 37.2721 19.5598H34.8144C34.6349 19.5635 34.4563 19.5346 34.2893 19.4748C34.1224 19.415 33.9704 19.3256 33.8424 19.2119C33.7144 19.0981 33.6129 18.9623 33.5441 18.8125C33.4752 18.6627 33.4403 18.502 33.4415 18.3398C33.4416 18.1813 33.4766 18.0243 33.5444 17.8781C33.6122 17.7319 33.7115 17.5993 33.8365 17.488C33.9615 17.3767 34.1097 17.2889 34.2725 17.2297C34.4354 17.1706 34.6097 17.1412 34.7852 17.1433C36.0871 17.1367 37.3891 17.1339 38.691 17.148C39.4595 17.1556 39.9919 17.6685 39.9993 18.3662C40.0807 26.7141 33.5104 34.1748 24.4802 35.9916C23.6826 36.1519 22.8839 36.3037 22.0653 36.3405C22.01 36.3405 21.9609 36.3537 21.9526 36.4112H17.9684C17.9412 36.3395 17.8723 36.3461 17.8097 36.3405C16.8429 36.2558 15.8856 36.0981 14.9479 35.869C10.7988 34.8706 7.33248 32.8925 4.59076 29.9094C2.26966 27.3996 0.758014 24.3615 0.221342 21.1278C0.151389 20.7205 0.176447 20.2981 0 19.9068V16.8718Z" fill="#FF8A00"/>
<path d="M18.6636 14.1338C18.6636 12.7242 18.6563 11.3147 18.6636 9.90516C18.6636 9.281 19.122 8.8388 19.8205 8.72849C20.4229 8.63421 21.0347 8.96892 21.2676 9.51293C21.3412 9.72624 21.3705 9.94998 21.3542 10.1729C21.3542 12.6513 21.3542 15.1297 21.3542 17.6081C21.3448 17.8294 21.4225 18.0465 21.5735 18.221C22.3043 19.0771 23.0247 19.937 23.7263 20.81C24.3455 21.5794 23.9351 22.5524 22.9266 22.7608C22.6984 22.8161 22.457 22.8084 22.2337 22.7387C22.0103 22.6689 21.8153 22.5403 21.6737 22.3695C20.7215 21.2569 19.7944 20.1246 18.8641 18.996C18.6762 18.7678 18.6657 18.4963 18.6657 18.2229C18.6657 16.8608 18.6657 15.4984 18.6657 14.1357L18.6636 14.1338Z" fill="#FF8A00"/>
</svg>
