<svg width="30" height="28" viewBox="0 0 30 28" fill="none" xmlns="http://www.w3.org/2000/svg">
<g clip-path="url(#clip0_183_1888)">
<path d="M29.5665 14.0051C29.5665 15.8954 29.5268 17.7912 29.5778 19.6815C29.6628 23.0275 27.4708 25.6131 24.6784 26.7647C23.5569 27.2264 22.3788 27.4708 21.161 27.4708C17.3491 27.4763 13.5315 27.5252 9.7196 27.4545C6.84792 27.4002 4.48601 26.2487 2.79246 23.9781C1.9032 22.7831 1.47839 21.4251 1.47839 19.9531C1.47839 16.0584 1.47839 12.1691 1.47839 8.27443C1.47839 5.09676 3.09265 2.87511 5.95867 1.43022C7.20476 0.805546 8.55847 0.539382 9.96882 0.53395C13.6675 0.53395 17.3718 0.512223 21.0704 0.544814C23.9421 0.566542 26.338 1.62033 28.1052 3.83656C29.0907 5.07503 29.5665 6.4982 29.5665 8.06259C29.5665 10.0398 29.5665 12.0225 29.5665 14.0051ZM3.56843 14.0051C3.56843 15.9986 3.56843 17.9867 3.56843 19.9802C3.56843 20.8711 3.78367 21.7076 4.26511 22.4626C5.5282 24.4453 7.43699 25.4121 9.80456 25.4502C13.6052 25.5045 17.4114 25.4719 21.2176 25.461C22.1522 25.461 23.0585 25.2763 23.9024 24.8907C26.202 23.8369 27.4878 22.1584 27.4764 19.638C27.4538 15.7813 27.4708 11.9247 27.4708 8.06802C27.4708 6.97621 27.1479 5.97673 26.4739 5.09676C25.1712 3.40744 23.37 2.57635 21.2176 2.55462C17.4227 2.51117 13.6278 2.53833 9.83288 2.54376C9.02292 2.54376 8.24128 2.70129 7.4823 2.97288C5.39792 3.71705 3.46082 5.60193 3.55144 8.37764C3.61941 10.2571 3.56843 12.1311 3.56843 14.0051Z" fill="white"/>
<path d="M15.5536 19.763C11.9003 19.763 8.95501 16.9709 8.94935 13.4945C8.94368 10.0724 11.9117 7.26954 15.5423 7.26954C19.1843 7.26411 22.141 10.0615 22.1466 13.5108C22.1466 16.9546 19.1956 19.7575 15.5536 19.763ZM15.5536 17.7531C18.0402 17.7531 20.0566 15.8465 20.0509 13.4999C20.0452 11.1751 18.0288 9.27392 15.5536 9.27392C13.0671 9.27392 11.0394 11.1697 11.0394 13.5108C11.0451 15.8574 13.0671 17.7586 15.5536 17.7531Z" fill="white"/>
<path d="M22.9112 5.36816C23.6759 5.36816 24.2989 5.99283 24.2989 6.75874C24.2933 7.52464 23.6646 8.14387 22.8999 8.13844C22.1466 8.13301 21.5292 7.51377 21.5292 6.76417C21.5235 5.99827 22.1466 5.36816 22.9112 5.36816Z" fill="white"/>
</g>
<defs>
<clipPath id="clip0_183_1888">
<rect width="29" height="27.8114" fill="white" transform="translate(0.963013 0.0449219)"/>
</clipPath>
</defs>
</svg>
