<svg width="10" height="12" viewBox="0 0 10 12" fill="none" xmlns="http://www.w3.org/2000/svg">
<path d="M5 0.154297C2.23976 0.154297 0 2.24015 0 4.81072C0 9.65388 4.79949 11.2352 4.84642 11.255C4.89761 11.2709 4.94454 11.2789 5 11.2789C5.05119 11.2789 5.10239 11.2709 5.14932 11.255C5.20051 11.2391 10 9.65786 10 4.81072C10 2.24015 7.75597 0.154297 5 0.154297ZM5 7.25416C3.53669 7.25416 2.35068 6.14567 2.35068 4.79086C2.35068 3.4281 3.54096 2.32359 5 2.32359C6.45904 2.32359 7.64505 3.43207 7.64505 4.79086C7.64505 6.14567 6.45904 7.25416 5 7.25416Z" fill="#605350"/>
</svg>
