<svg width="26" height="23" viewBox="0 0 26 23" fill="none" xmlns="http://www.w3.org/2000/svg">
<g clip-path="url(#clip0_177_1580)">
<path d="M19.0183 22.144L20.3207 21.0294C20.4946 20.8809 20.5813 20.7098 20.5813 20.5164C20.5813 20.3234 20.4946 20.1524 20.3207 20.0039L10.0821 11.2419L20.3204 2.48024C20.4943 2.33165 20.581 2.16064 20.581 1.96745C20.581 1.77419 20.4943 1.60318 20.3204 1.45466L19.0179 0.340203C18.8443 0.19137 18.6445 0.117187 18.4187 0.117187C18.193 0.117187 17.9932 0.191604 17.8196 0.340203L5.67904 10.7291C5.50539 10.8776 5.41861 11.0487 5.41861 11.2419C5.41861 11.4351 5.50539 11.6058 5.67904 11.7543L17.8196 22.144C17.9932 22.2925 18.1931 22.3663 18.4187 22.3663C18.6445 22.3663 18.8443 22.2925 19.0183 22.144Z" fill="#FF8A00"/>
</g>
<defs>
<clipPath id="clip0_177_1580">
<rect width="22.2491" height="26" fill="white" transform="translate(26 0.117188) rotate(90)"/>
</clipPath>
</defs>
</svg>
