<svg width="20" height="17" viewBox="0 0 20 17" fill="none" xmlns="http://www.w3.org/2000/svg">
<path d="M19.4158 13.3461L19.3188 13.0958C19.0888 12.511 18.3352 11.9011 17.6429 11.7404L15.0806 11.1414C14.3857 10.9796 13.3945 11.1971 12.8861 11.6322L11.9587 12.4257C8.58847 11.6464 5.94568 9.38483 5.03622 6.50136L5.96362 5.70774C6.47202 5.27269 6.72618 4.42559 6.53714 3.83097L5.83843 1.63719C5.64938 1.04365 4.93534 0.398761 4.25327 0.204179L3.96077 0.120022C3.27738 -0.0745598 2.30277 0.122226 1.79441 0.557246L0.407208 1.74541C0.159385 1.95636 0.00099538 2.55973 0.00099538 2.56194C-0.0475228 6.33081 1.67943 9.96193 4.79481 12.6279C7.90255 15.2873 12.1299 16.763 16.5214 16.7313C16.5444 16.7313 17.2699 16.5979 17.5177 16.3869L18.9049 15.1998C19.4133 14.7649 19.6432 13.9309 19.4158 13.3461Z" fill="white"/>
</svg>
