<svg width="30" height="32" viewBox="0 0 30 32" fill="none" xmlns="http://www.w3.org/2000/svg">
<path d="M6.94128 28.1815C6.94128 27.2703 6.93182 26.3591 6.94128 25.4464C6.94128 25.1319 6.84032 24.9798 6.49799 24.8526C3.39493 23.7044 1.16268 21.8074 0.530079 18.6291C-0.226341 14.8737 -0.172723 11.0166 0.687835 7.28058C0.857774 6.56809 1.17959 5.89427 1.63437 5.29872C2.51562 4.12989 3.64577 3.14081 4.95514 2.39248C6.1809 1.67433 7.57388 1.53245 8.95109 1.35986C13.5742 0.761564 18.271 0.855391 22.862 1.63776C25.0706 2.01658 26.6103 3.29931 27.9938 4.81313C29.0161 5.93057 29.3852 7.27473 29.614 8.67885C30.2158 12.2346 30.1132 15.8622 29.3111 19.3838C29.1412 20.0973 28.81 20.7693 28.3393 21.3554C26.9999 23.0594 25.3924 24.4869 23.0971 24.9359C20.3035 25.4753 17.451 25.7076 14.5988 25.6278C14.3112 25.609 14.023 25.6531 13.7572 25.7565C13.4914 25.8599 13.2555 26.0197 13.0685 26.2231C11.3332 27.9182 9.56792 29.5754 7.80894 31.2443C7.63541 31.4095 7.4745 31.645 7.17003 31.5368C6.86556 31.4285 6.94601 31.1404 6.94444 30.9166C6.93655 30.0054 6.94128 29.0927 6.94128 28.1815ZM16.3136 17.7281C16.0637 17.6767 15.8173 17.6122 15.5753 17.5351C13.0638 16.6268 11.4894 14.9023 10.576 12.5987C10.4708 12.3793 10.4497 12.1331 10.5163 11.9011C10.5829 11.6691 10.7331 11.4652 10.942 11.3233C11.1234 11.1843 11.3095 11.0498 11.491 10.9108C12.1788 10.3843 12.3413 9.72316 11.9137 9.0094C11.2552 7.92995 10.4712 6.92058 9.57581 5.99932C9.21612 5.62781 8.76336 5.47423 8.24592 5.679C7.16687 6.10609 6.29764 6.76573 5.74392 7.74277C5.59547 7.98053 5.51095 8.24793 5.49749 8.52237C5.48404 8.7968 5.54205 9.07022 5.66662 9.31948C5.92376 9.84895 6.14935 10.3945 6.39545 10.9284C8.91954 16.4235 13.3746 20.0171 19.3078 22.154C20.0019 22.4041 20.6361 22.4173 21.275 22.0663C22.1835 21.5771 22.9014 20.8336 23.3258 19.9425C23.5972 19.3765 23.4915 18.9187 22.9772 18.5209C21.9666 17.7373 20.8946 17.0245 19.77 16.3884C19.1216 16.0168 18.4259 16.1324 17.9037 16.6575C17.6908 16.871 17.5109 17.1124 17.3027 17.3303C17.1842 17.4652 17.0325 17.5717 16.8604 17.6409C16.6883 17.7101 16.5007 17.74 16.3136 17.7281ZM15.0373 4.62006C15.1335 4.62006 15.0547 4.62006 14.9774 4.62006C14.6051 4.60251 14.2738 4.69465 14.2422 5.08079C14.2075 5.4991 14.5814 5.5576 14.9237 5.59709C15.2661 5.63658 15.5879 5.66145 15.9192 5.69216C17.5922 5.84959 19.1661 6.50205 20.4082 7.55304C21.6503 8.60402 22.4946 9.99773 22.8163 11.528C22.9358 12.2288 23.0169 12.9347 23.0592 13.643C23.0876 13.9355 23.2248 14.1944 23.605 14.171C23.9852 14.1476 24.1209 13.8873 24.0925 13.5538C24.0562 13.1369 24.0136 12.7186 23.9758 12.3018C23.5845 8.06454 19.7984 4.73707 15.0373 4.62006ZM21.7309 12.5548C21.641 9.46867 19.4939 7.31129 16.1116 6.85057C15.7062 6.79645 15.1477 6.62532 15.0531 7.2016C14.9584 7.77787 15.5264 7.75008 15.9476 7.79835C18.5064 8.09087 20.207 9.54619 20.6203 11.8147C20.6787 12.1365 20.6613 12.4685 20.696 12.7932C20.726 13.0726 20.8617 13.2964 21.2024 13.2934C21.5684 13.2934 21.7088 13.0623 21.7293 12.7537C21.7356 12.6689 21.7309 12.5767 21.7309 12.5548ZM19.3851 12.0253C19.3977 10.3726 18.0315 9.07376 16.3293 9.09131C16.0138 9.09131 15.7772 9.18931 15.7236 9.48768C15.6699 9.78606 15.8671 9.96157 16.1747 10.023C16.3325 10.0523 16.4902 10.0669 16.6401 10.0859C16.9843 10.117 17.3117 10.239 17.5834 10.4373C17.8552 10.6356 18.06 10.9019 18.1735 11.2048C18.2729 11.4993 18.3441 11.8012 18.3865 12.1072C18.4512 12.4188 18.642 12.6148 18.9891 12.5753C19.3362 12.5358 19.4056 12.2872 19.3851 12.0253Z" fill="white"/>
</svg>
