<svg width="29" height="28" viewBox="0 0 29 28" fill="none" xmlns="http://www.w3.org/2000/svg">
<path d="M0 27.0624C0.66511 24.8123 1.31244 22.6155 1.96843 20.4213C1.99526 20.3479 2.00471 20.2701 1.99614 20.1931C1.98757 20.116 1.96117 20.0416 1.91874 19.9748C-1.95612 13.4839 0.629096 5.33658 7.69138 1.82432C10.3979 0.47766 13.2985 -0.0694213 16.3446 0.35141C22.3361 1.1855 26.3473 4.31228 28.2733 9.58909C30.1218 14.6542 28.1475 20.4886 23.6289 23.8385C20.8741 25.882 17.7328 26.895 14.2002 26.8369C11.9739 26.8034 9.78828 26.2806 7.8245 25.3118C7.76382 25.2807 7.69692 25.2613 7.62787 25.2549C7.55881 25.2484 7.48906 25.255 7.42288 25.2743C5.05784 25.8517 2.69159 26.425 0.324121 26.9943C0.230212 27.0166 0.135392 27.0343 0 27.0624ZM3.46003 23.91C3.543 23.8915 3.58904 23.8822 3.63417 23.8713C4.94843 23.5527 6.26498 23.24 7.57559 22.9093C7.87008 22.8348 8.09756 22.8735 8.36287 23.0136C12.0645 24.9692 15.8956 25.1897 19.734 23.4765C25.8686 20.7411 28.2674 14.0192 25.1447 8.4318C22.7715 4.18477 17.8052 1.8744 12.6653 2.61086C10.3459 2.94247 8.29586 3.83632 6.55992 5.2945C4.00707 7.43611 2.65861 10.1076 2.56197 13.297C2.49313 15.5662 3.15733 17.6539 4.48618 19.5607C4.61428 19.7446 4.65394 19.9024 4.58511 20.1255C4.19899 21.3673 3.83931 22.6155 3.46003 23.91Z" fill="white"/>
<path d="M9.86672 6.96348C10.506 6.79404 10.7896 7.20348 11.0063 7.76034C11.3259 8.58282 11.6745 9.39451 12.0239 10.2053C12.1417 10.479 12.13 10.7172 11.9643 10.964C11.6977 11.3605 11.4076 11.741 11.0957 12.1033C10.8889 12.3442 10.8798 12.5635 11.0406 12.8318C12.2049 14.7761 13.8276 16.1847 15.9437 17.0251C16.234 17.1406 16.4647 17.0948 16.6606 16.8507C17.0164 16.4085 17.3794 15.9721 17.732 15.5271C17.9753 15.2202 18.109 15.1577 18.4774 15.3047C19.5158 15.7182 20.5014 16.235 21.4965 16.7366C21.6703 16.8265 21.7222 16.9721 21.7222 17.1559C21.6879 18.6782 21.2418 19.4162 19.6142 20.0935C18.6946 20.4764 17.7428 20.3834 16.7961 20.1209C13.3603 19.1681 10.8302 17.017 8.80483 14.1833C8.17276 13.2952 7.59847 12.3797 7.36009 11.301C7.01967 9.7626 7.40524 8.43225 8.54433 7.32528C8.9028 6.97382 9.34029 6.9037 9.86672 6.96348Z" fill="white"/>
</svg>
