<svg width="34" height="23" viewBox="0 0 34 23" fill="none" xmlns="http://www.w3.org/2000/svg">
<path d="M28.9936 1.15759C28.9936 1.15759 25.5087 0.680176 16.4479 0.680176C7.35516 0.680176 4.15512 1.15759 4.15512 1.15759C1.90146 1.15759 0.0740967 2.87817 0.0740967 5.00074V17.6822C0.0740967 19.8043 1.90095 21.5249 4.15512 21.5249C4.15512 21.5249 7.35516 22.0023 16.458 22.0023C25.5082 22.0023 28.9931 21.5249 28.9931 21.5249C31.2462 21.5249 33.0741 19.8043 33.0741 17.6822V5.00074C33.0746 2.87817 31.2472 1.15759 28.9936 1.15759ZM11.5786 17.4268V5.32442L22.707 11.3751L11.5786 17.4268Z" fill="white"/>
</svg>
