<?xml version="1.0" standalone="no"?>
<!DOCTYPE svg PUBLIC "-//W3C//DTD SVG 20010904//EN"
 "http://www.w3.org/TR/2001/REC-SVG-20010904/DTD/svg10.dtd">
<svg version="1.0" xmlns="http://www.w3.org/2000/svg"
 width="872.000000pt" height="872.000000pt" viewBox="0 0 872.000000 872.000000"
 preserveAspectRatio="xMidYMid meet">
<metadata>
Created by potrace 1.14, written by Peter Selinger 2001-2017
</metadata>
<g transform="translate(0.000000,872.000000) scale(0.100000,-0.100000)"
fill="#000000" stroke="none">
<path d="M4313 6868 c-13 -6 -23 -15 -23 -20 0 -4 -5 -8 -11 -8 -9 0 -321
-168 -409 -220 -13 -8 -429 -237 -535 -295 -265 -145 -401 -220 -405 -225 -3
-3 -32 -18 -65 -35 -33 -16 -61 -33 -63 -37 -2 -5 -7 -8 -12 -8 -4 0 -61 -29
-125 -65 -65 -36 -120 -65 -121 -65 -2 0 -25 -13 -51 -29 -63 -37 -187 -105
-193 -106 -3 0 -16 -8 -30 -16 -14 -9 -81 -47 -150 -84 -69 -38 -143 -78 -165
-90 -22 -13 -82 -46 -133 -74 -50 -28 -95 -51 -99 -51 -3 0 -14 -6 -22 -14 -9
-7 -56 -35 -106 -61 -49 -26 -145 -79 -212 -117 -68 -37 -127 -68 -132 -68 -5
0 -11 -5 -13 -11 -2 -5 -10 -11 -18 -12 -8 -1 -26 -10 -40 -20 -13 -9 -30 -17
-37 -17 -7 0 -13 -4 -13 -9 0 -5 -12 -14 -27 -20 -16 -5 -56 -26 -91 -45 -126
-71 -384 -213 -617 -341 -88 -48 -178 -98 -200 -110 -22 -13 -43 -22 -46 -21
-4 0 -15 -6 -25 -15 -11 -9 -34 -22 -52 -30 -17 -8 -32 -17 -32 -21 0 -5 -8
-8 -17 -8 -12 0 -14 -3 -6 -8 6 -4 198 -7 426 -6 398 1 416 1 448 21 19 11 79
44 134 73 55 30 118 64 140 76 22 13 60 33 85 46 93 50 245 131 276 149 19 10
64 35 101 55 37 20 91 49 118 64 79 43 153 83 250 135 50 26 95 51 100 55 9 7
49 29 250 135 33 18 137 74 230 125 94 51 197 107 230 125 33 18 87 47 120 65
33 18 87 48 120 65 33 18 106 58 163 89 56 31 107 56 112 56 4 0 10 3 12 8 2
4 32 22 68 41 36 19 101 54 145 78 44 24 96 51 115 61 19 9 37 20 38 25 2 4 7
7 11 7 7 0 83 40 386 205 33 18 96 52 140 75 44 24 85 47 91 51 11 9 54 1 54
-10 0 -3 15 -12 33 -20 17 -8 44 -23 60 -33 15 -11 27 -16 27 -12 0 3 6 2 13
-4 15 -12 66 -41 148 -83 35 -18 76 -41 92 -51 15 -11 27 -17 27 -13 0 3 17
-6 37 -20 21 -14 41 -25 44 -25 4 0 38 -17 76 -38 74 -43 172 -95 333 -180 58
-30 110 -58 115 -62 9 -7 172 -93 285 -152 25 -13 47 -26 48 -30 2 -5 9 -8 15
-8 7 0 28 -10 47 -22 19 -12 37 -22 40 -23 3 0 35 -17 72 -38 36 -20 71 -37
76 -37 6 0 12 -3 14 -7 2 -5 19 -16 38 -25 49 -24 257 -136 475 -255 44 -24
98 -53 120 -64 22 -11 63 -32 90 -47 28 -15 91 -50 140 -76 203 -109 235 -128
236 -139 1 -15 1 -1127 0 -1148 -1 -15 -91 -17 -1106 -17 l-1105 1 0 611 0
611 -267 0 -268 0 0 -1543 c0 -849 2 -1545 6 -1547 5 -3 404 -8 497 -6 l32 1
0 580 0 580 808 1 c444 0 815 0 825 0 9 0 46 0 82 0 36 0 72 0 80 0 8 0 44 0
80 0 36 0 72 0 80 0 8 0 44 0 80 0 36 0 73 0 83 0 80 -1 92 -3 93 -19 0 -9 1
-270 1 -579 l1 -563 21 -1 c18 0 453 0 498 1 15 0 16 103 15 1375 -2 1073 1
1375 10 1375 7 0 32 -11 57 -25 24 -13 77 -41 117 -62 l74 -38 405 2 c223 1
412 2 420 2 15 1 -16 20 -190 113 -52 28 -160 87 -240 131 -152 84 -229 125
-295 161 -22 11 -42 23 -45 26 -3 3 -43 25 -90 49 -47 25 -98 53 -115 62 -16
10 -66 37 -110 60 -44 23 -84 45 -90 49 -5 4 -46 27 -90 50 -44 24 -93 51
-110 60 -16 9 -120 65 -230 125 -110 60 -201 113 -203 117 -2 4 -11 8 -21 8
-9 0 -21 4 -27 9 -8 8 -406 228 -614 339 -47 25 -102 56 -122 69 -21 13 -40
23 -43 23 -3 0 -40 20 -83 43 -42 24 -108 61 -147 82 -133 72 -270 147 -325
178 -30 16 -77 42 -105 57 -211 115 -399 218 -445 243 -30 17 -73 40 -95 51
-22 12 -42 23 -45 26 -3 3 -25 15 -50 28 -72 37 -125 67 -130 72 -3 3 -30 17
-60 32 -30 15 -95 50 -145 77 -100 56 -92 54 -122 39z m1356 -3313 c111 -27
150 -181 69 -267 -32 -34 -63 -46 -128 -50 -129 -7 -217 120 -161 235 37 76
117 106 220 82z m-852 -53 c1 -30 3 -59 6 -65 4 -10 122 -15 179 -8 4 1 8 29
10 64 3 54 5 62 23 62 19 0 20 -7 20 -155 0 -153 0 -155 -22 -158 -22 -3 -23
0 -23 72 l0 76 -95 0 c-69 0 -95 -3 -96 -12 0 -7 -1 -40 -2 -73 -2 -54 -4 -60
-24 -63 -23 -3 -23 -3 -23 151 0 84 3 157 7 161 4 4 14 5 23 4 11 -2 15 -17
17 -56z m1426 28 c15 -16 27 -34 27 -40 0 -5 5 -10 10 -10 6 0 10 -7 10 -15 0
-8 4 -15 8 -15 5 0 15 -11 22 -25 7 -14 17 -25 21 -25 4 0 33 35 64 79 53 73
59 79 93 79 l37 1 0 -157 c0 -155 0 -157 -22 -160 -23 -3 -23 -3 -23 135 -1
128 -2 136 -16 111 -8 -16 -19 -28 -24 -28 -6 0 -10 -4 -10 -9 0 -6 -17 -33
-37 -60 -29 -39 -44 -51 -64 -51 -15 0 -29 6 -32 14 -5 11 -107 156 -111 156
0 0 -1 -61 0 -135 l1 -134 -24 1 -23 2 0 156 0 156 33 2 c26 2 39 -4 60 -28z
m909 24 c4 -3 5 -10 2 -18 -3 -9 -33 -13 -105 -13 -56 -1 -103 -4 -107 -7 -10
-11 -9 -86 2 -88 6 -1 52 -2 101 -2 83 -1 90 -3 90 -21 0 -18 -7 -19 -97 -18
-107 1 -100 6 -100 -65 0 -18 2 -36 6 -39 3 -4 53 -6 110 -6 78 0 106 -3 110
-13 3 -7 2 -15 -2 -17 -4 -3 -67 -5 -139 -5 l-133 0 -1 54 c0 30 -1 90 -1 134
0 44 1 90 1 103 1 23 3 23 128 24 70 1 130 0 135 -3z"/>
<path d="M5560 3521 c-57 -22 -78 -60 -75 -133 2 -51 20 -80 67 -104 32 -17
99 -11 133 12 44 28 61 115 34 167 -12 21 -46 56 -58 58 -22 5 -89 5 -101 0z"/>
<path d="M2358 5015 c-2 -2 -34 -6 -73 -10 -124 -11 -324 -48 -357 -66 -10 -5
-18 -8 -18 -5 0 9 -178 -56 -260 -96 -47 -22 -116 -62 -155 -87 -89 -58 -230
-199 -274 -274 -43 -74 -91 -206 -98 -272 -13 -116 -6 -271 16 -352 l7 -27
378 -4 377 -3 -53 48 c-172 154 -216 325 -123 473 71 112 268 212 464 235 25
3 55 8 66 10 118 24 419 21 555 -5 30 -6 66 -14 80 -16 57 -12 181 -58 267
-100 76 -37 244 -142 263 -163 3 -3 32 -28 65 -56 33 -27 71 -60 83 -73 26
-25 26 -25 87 30 39 35 68 60 145 128 35 30 83 74 108 96 l45 42 -21 29 c-27
38 -205 203 -219 203 -2 0 -19 11 -37 25 -18 14 -38 25 -44 25 -6 0 -12 4 -14
9 -3 8 -101 61 -115 62 -5 0 -17 6 -28 13 -42 27 -275 105 -360 121 -11 2 -32
6 -48 9 -58 12 -146 27 -193 32 -27 3 -62 8 -79 10 -32 5 -433 13 -437 9z"/>
<path d="M1335 3563 c-82 -14 -115 -41 -115 -94 0 -20 49 -74 58 -64 3 3 10 1
16 -4 6 -5 27 -12 47 -15 90 -14 130 -54 91 -89 -45 -40 -152 -24 -173 25 -7
17 -18 27 -28 26 -58 -10 -7 -89 67 -105 74 -16 160 6 182 47 34 63 -7 111
-114 135 -84 19 -107 34 -99 64 14 53 163 43 163 -10 0 -11 6 -16 18 -14 9 2
20 4 25 4 12 2 7 25 -11 49 -19 24 -94 51 -127 45z"/>
<path d="M2557 3555 c-52 -13 -81 -35 -105 -80 -32 -61 -16 -151 35 -197 22
-20 89 -45 118 -43 71 4 134 38 154 82 29 64 19 158 -21 191 -11 9 -26 22 -32
28 -23 22 -100 32 -149 19z m103 -39 c14 -4 36 -23 49 -43 42 -64 14 -171 -49
-188 -58 -16 -86 -15 -118 5 -40 25 -62 72 -57 124 9 90 75 128 175 102z"/>
<path d="M1826 3544 c-7 -18 0 -20 59 -23 27 -1 52 -5 55 -7 3 -3 6 -58 6
-122 2 -157 1 -152 24 -152 23 0 22 -8 22 145 0 66 3 125 6 130 8 11 72 14 72
4 0 -4 9 -5 20 -2 13 3 20 12 18 22 -3 14 -23 16 -140 17 -106 1 -138 -1 -142
-12z"/>
<path d="M3139 3551 c0 -3 -1 -74 -2 -157 l-2 -150 25 -2 c24 -2 25 0 25 66 0
76 6 83 68 71 28 -5 49 -18 73 -45 18 -22 34 -42 34 -45 0 -19 40 -49 64 -47
14 1 26 4 26 6 0 10 -92 122 -101 122 -22 0 -6 18 32 34 22 10 38 20 35 23 -2
3 -1 16 5 30 11 28 -10 76 -38 88 -22 10 -243 15 -244 6z m217 -46 c19 -12 23
-21 18 -38 -11 -38 -33 -47 -114 -47 l-76 0 1 47 c2 41 5 48 25 53 42 10 120
2 146 -15z"/>
<path d="M3760 3553 c0 -4 30 -46 65 -93 l65 -85 0 -68 c0 -65 1 -68 23 -65
23 3 24 7 26 108 1 24 10 46 29 66 15 17 36 43 47 59 11 16 30 39 41 51 24 25
21 34 -11 34 -14 0 -37 -22 -75 -75 -46 -66 -55 -73 -64 -58 -5 10 -13 22 -18
28 -5 5 -24 30 -42 54 -22 28 -44 46 -60 48 -14 2 -26 0 -26 -4z"/>
<path d="M3260 3060 c0 -3 12 -13 28 -22 76 -46 145 -116 180 -183 38 -71 38
-177 1 -255 -74 -155 -277 -284 -494 -315 -27 -4 -63 -9 -80 -11 -29 -4 -107
-12 -190 -20 -188 -17 -459 1 -588 40 -26 8 -47 12 -47 10 0 -3 -115 39 -170
63 -191 84 -391 219 -578 391 -25 23 -48 42 -51 42 -3 0 -44 -42 -91 -92 -47
-50 -120 -127 -162 -172 l-77 -80 26 -36 c54 -71 165 -171 266 -238 26 -18 52
-32 58 -32 5 0 9 -4 9 -10 0 -5 5 -10 10 -10 6 0 22 -8 37 -17 14 -10 32 -18
40 -19 8 -2 24 -11 35 -21 11 -10 23 -17 27 -16 3 1 20 -5 36 -12 100 -45 308
-113 420 -136 33 -7 65 -14 70 -15 36 -8 213 -34 275 -41 96 -10 474 -10 563
0 70 7 123 15 167 23 14 2 41 7 60 10 152 24 410 115 523 185 26 16 50 29 53
29 10 0 167 128 200 162 154 165 216 336 209 573 -4 142 -8 173 -23 202 -10
19 -25 20 -339 22 -180 1 -345 3 -365 4 -21 1 -38 0 -38 -3z"/>
</g>
</svg>
