<svg width="56" height="49" viewBox="0 0 56 49" fill="none" xmlns="http://www.w3.org/2000/svg">
<g filter="url(#filter0_d_202_16)">
<rect x="42" y="6.98804" width="27.9164" height="30.9057" rx="10" transform="rotate(90 42 6.98804)" fill="#FF8A00"/>
</g>
<path d="M11.1423 29.0752C11.5916 29.0752 11.9585 29.4145 11.9585 29.831C11.9585 30.211 12.2917 30.5191 12.7017 30.5191C13.1107 30.5191 13.444 30.211 13.444 29.831C13.444 28.8973 12.7878 28.1094 11.8846 27.8213V27.4308C11.8846 27.0516 11.5523 26.7419 11.1423 26.7419C10.7314 26.7419 10.3991 27.0516 10.3991 27.4308V27.8213C9.49586 28.1094 8.84159 28.8973 8.84159 29.831C8.84159 31.0085 9.87307 31.9647 11.1423 31.9647C11.5916 31.9647 11.9585 32.3049 11.9585 32.7214C11.9585 33.1388 11.5916 33.478 11.1423 33.478C10.693 33.478 10.327 33.1388 10.327 32.7214C10.327 32.3413 9.99382 32.0324 9.58385 32.0324C9.17294 32.0324 8.84159 32.3413 8.84159 32.7214C8.84159 33.6551 9.49586 34.4421 10.3991 34.7302V35.1206C10.3991 35.5016 10.7314 35.8105 11.1423 35.8105C11.5523 35.8105 11.8846 35.5016 11.8846 35.1206V34.7302C12.7878 34.4421 13.444 33.6551 13.444 32.7214C13.444 31.5447 12.4115 30.5876 11.1423 30.5876C10.693 30.5876 10.327 30.2483 10.327 29.831C10.327 29.4145 10.693 29.0752 11.1423 29.0752ZM17.3659 35.0998C17.73 35.2777 18.1783 35.1484 18.3693 34.8135C18.987 33.7314 19.3128 32.5079 19.3128 31.2757C19.3128 27.1002 15.6464 23.7022 11.1423 23.7022C6.63727 23.7022 2.97184 27.1002 2.97184 31.2757C2.97184 35.4521 6.63727 38.8501 11.1423 38.8501C12.4518 38.8501 13.7529 38.5569 14.9051 38.0006C15.2692 37.8262 15.4105 37.4088 15.2215 37.0722C15.0324 36.7364 14.584 36.6027 14.219 36.7789C13.2652 37.2405 12.229 37.4739 11.1423 37.4739C7.45629 37.4739 4.45636 34.6937 4.45636 31.2757C4.45636 27.8595 7.45629 25.0784 11.1423 25.0784C14.8283 25.0784 17.8283 27.8595 17.8283 31.2757C17.8283 32.2849 17.5606 33.2854 17.057 34.1687C16.8642 34.5054 17.0027 34.9219 17.3659 35.0998ZM11.1423 20.9463C8.99041 20.9463 6.90123 21.5173 5.10128 22.5958C4.75589 22.8024 4.6576 23.2284 4.88038 23.5477C5.10408 23.8671 5.56179 23.9573 5.90812 23.7525C7.46565 22.8188 9.27777 22.3242 11.1423 22.3242C16.4673 22.3242 20.7982 26.3401 20.7982 31.2757C20.7982 36.2123 16.4673 40.2281 11.1423 40.2281C5.81733 40.2281 1.48545 36.2123 1.48545 31.2757C1.48545 29.5637 2.00869 27.8985 2.99992 26.4624C3.22082 26.1414 3.11973 25.7153 2.77341 25.5105C2.42802 25.3058 1.96844 25.3995 1.74847 25.7197C0.604665 27.3779 0 29.3008 0 31.2757C0 36.9724 4.99738 41.6052 11.1423 41.6052C17.2863 41.6052 22.2846 36.9724 22.2846 31.2757C22.2846 25.5808 17.2863 20.9463 11.1423 20.9463Z" fill="#605350"/>
<defs>
<filter id="filter0_d_202_16" x="5.09436" y="0.988037" width="50.9056" height="47.9163" filterUnits="userSpaceOnUse" color-interpolation-filters="sRGB">
<feFlood flood-opacity="0" result="BackgroundImageFix"/>
<feColorMatrix in="SourceAlpha" type="matrix" values="0 0 0 0 0 0 0 0 0 0 0 0 0 0 0 0 0 0 127 0" result="hardAlpha"/>
<feOffset dx="4" dy="4"/>
<feGaussianBlur stdDeviation="5"/>
<feComposite in2="hardAlpha" operator="out"/>
<feColorMatrix type="matrix" values="0 0 0 0 0 0 0 0 0 0 0 0 0 0 0 0 0 0 0.25 0"/>
<feBlend mode="normal" in2="BackgroundImageFix" result="effect1_dropShadow_202_16"/>
<feBlend mode="normal" in="SourceGraphic" in2="effect1_dropShadow_202_16" result="shape"/>
</filter>
</defs>
</svg>
