<svg width="56" height="46" viewBox="0 0 56 46" fill="none" xmlns="http://www.w3.org/2000/svg">
<g filter="url(#filter0_d_156_413)">
<rect x="42" y="6.02563" width="25.6202" height="29.7818" rx="10" transform="rotate(90 42 6.02563)" fill="#FF8A00"/>
</g>
<g clip-path="url(#clip0_156_413)">
<path d="M0.000637192 29.072C0.698534 28.2202 1.39685 27.3686 2.0956 26.5171C2.17181 26.4276 2.21082 26.317 2.2059 26.2044C2.19825 25.2417 2.19761 24.2796 2.19506 23.3174C2.19506 22.9087 2.36401 22.6971 2.79116 22.5742C3.80039 22.2884 4.80898 21.9997 5.82012 21.7167C5.96284 21.6801 6.08628 21.599 6.16822 21.488C6.76751 20.7266 7.37381 19.9696 7.97757 19.2116C8.28295 18.8291 8.54434 18.7543 9.04418 18.9046C10.04 19.203 11.0365 19.4974 12.0304 19.7999C12.1488 19.8387 12.2787 19.8387 12.397 19.7999C13.3916 19.498 14.3881 19.2013 15.3845 18.9023C15.8812 18.7537 16.1439 18.8286 16.4499 19.2122C17.0589 19.9767 17.6663 20.7418 18.272 21.5075C18.3471 21.6062 18.4586 21.6781 18.5869 21.7104C19.5964 21.9932 20.6045 22.2791 21.6114 22.5679C22.0787 22.7011 22.2324 22.8949 22.2311 23.3351C22.2311 24.2761 22.2311 25.2171 22.219 26.1575C22.2153 26.3055 22.27 26.4498 22.3733 26.5651C22.9942 27.3129 23.6105 28.063 24.2221 28.8153C24.5046 29.1583 24.5052 29.403 24.2221 29.7477C23.6114 30.4909 23.0025 31.2398 22.3835 31.9801C22.2679 32.1136 22.2085 32.2794 22.2158 32.4483C22.2273 33.3887 22.226 34.3297 22.2279 35.2707C22.2279 35.6583 22.059 35.8693 21.6325 35.9916C20.6175 36.2813 19.6015 36.5683 18.5844 36.8526C18.4561 36.8853 18.3445 36.957 18.2688 37.0555C17.6695 37.817 17.0638 38.5745 16.4594 39.3325C16.1324 39.743 15.892 39.8122 15.3597 39.6527C14.3708 39.356 13.3833 39.0627 12.3938 38.7631C12.2754 38.7246 12.1456 38.7246 12.0272 38.7631C11.0333 39.0656 10.0362 39.36 9.04099 39.6578C8.54052 39.807 8.27976 39.7333 7.97502 39.3508C7.37063 38.5928 6.76369 37.8364 6.16503 37.075C6.08297 36.9641 5.95957 36.883 5.81694 36.8463C4.80579 36.5662 3.7972 36.2775 2.78797 35.9916C2.36273 35.871 2.1906 35.6572 2.19123 35.2484C2.19123 34.2937 2.19123 33.3384 2.20398 32.3837C2.20715 32.2498 2.15773 32.119 2.06436 32.0144C1.4536 31.2819 0.846231 30.5458 0.242265 29.806C0.159385 29.7054 0.0803303 29.6019 0 29.5002L0.000637192 29.072ZM3.67416 33.3373H3.66587C3.66587 33.7792 3.67416 34.2217 3.66141 34.663C3.65694 34.818 3.70922 34.8831 3.87626 34.9283C4.76882 35.1701 5.655 35.4274 6.54501 35.6715C6.80517 35.7383 7.03085 35.885 7.18255 36.0859C7.72191 36.7805 8.2804 37.4637 8.8204 38.1583C8.91794 38.2829 9.00082 38.2909 9.14682 38.2463C10.0445 37.9719 10.9472 37.7101 11.8436 37.4345C12.0829 37.3574 12.3446 37.3574 12.5838 37.4345C13.4808 37.7078 14.3823 37.9674 15.2768 38.2452C15.4445 38.2978 15.5197 38.2663 15.6153 38.144C16.163 37.446 16.7227 36.7554 17.2729 36.0579C17.4067 35.881 17.6058 35.7522 17.8352 35.6943C18.7418 35.4457 19.6427 35.1798 20.5493 34.9306C20.7125 34.8854 20.7686 34.8231 20.766 34.6653C20.7533 33.8032 20.7609 32.94 20.7501 32.0779C20.745 31.8709 20.8203 31.6689 20.963 31.5062C21.5317 30.8202 22.0889 30.129 22.6627 29.4481C22.7717 29.3189 22.759 29.2418 22.657 29.1194C22.0832 28.4368 21.5266 27.7474 20.9573 27.0614C20.817 26.8978 20.7439 26.6959 20.7501 26.4897C20.7609 25.6276 20.7533 24.7643 20.766 23.9023C20.766 23.7513 20.7144 23.6913 20.5633 23.6496C19.6427 23.394 18.7246 23.1299 17.804 22.8738C17.5968 22.8206 17.4166 22.7046 17.294 22.5456C16.7393 21.8431 16.1757 21.1456 15.6243 20.4413C15.5248 20.3144 15.4496 20.2738 15.2666 20.331C14.374 20.6116 13.4706 20.8689 12.5742 21.1416C12.3503 21.2163 12.1044 21.2195 11.8781 21.1507C10.9798 20.8792 10.0764 20.6202 9.18316 20.3355C8.98106 20.2715 8.89563 20.3184 8.78788 20.4567C8.24533 21.1496 7.69131 21.835 7.14685 22.5274C7.01594 22.6978 6.82301 22.8221 6.60111 22.8789C5.6958 23.1293 4.79496 23.3935 3.89028 23.6427C3.72516 23.6884 3.65694 23.7502 3.65949 23.9194C3.67416 24.7815 3.66651 25.6442 3.67671 26.5068C3.68116 26.7068 3.60867 26.902 3.47142 27.0597C2.89763 27.7508 2.33596 28.4488 1.75834 29.1366C1.65506 29.2595 1.66654 29.3309 1.76344 29.447C2.33723 30.1302 2.89317 30.8225 3.46313 31.5051C3.61052 31.6737 3.68623 31.8838 3.67671 32.0979C3.66459 32.5101 3.67352 32.924 3.67352 33.3373H3.67416Z" fill="#605350"/>
<path d="M17.0301 26.7895C17.0383 26.8864 17.0229 26.9838 16.9849 27.0748C16.9469 27.1658 16.8873 27.2483 16.8101 27.3166C15.0008 28.9402 13.1901 30.563 11.3783 32.185C11.0595 32.4709 10.624 32.456 10.2976 32.1639C9.41356 31.3727 8.53141 30.5813 7.65118 29.7897C7.32157 29.4936 7.30627 29.0905 7.60719 28.8213C7.90811 28.552 8.36013 28.5709 8.69101 28.8636C9.35724 29.4558 10.0228 30.0487 10.6789 30.6501C10.8128 30.773 10.8771 30.7856 11.0212 30.6552C12.5717 29.2529 14.1324 27.8597 15.6868 26.4608C15.8946 26.2744 16.119 26.1526 16.4257 26.1995C16.7801 26.2538 17.0288 26.5122 17.0301 26.7895Z" fill="#605350"/>
</g>
<defs>
<filter id="filter0_d_156_413" x="6.21814" y="0.0256348" width="49.7819" height="45.6201" filterUnits="userSpaceOnUse" color-interpolation-filters="sRGB">
<feFlood flood-opacity="0" result="BackgroundImageFix"/>
<feColorMatrix in="SourceAlpha" type="matrix" values="0 0 0 0 0 0 0 0 0 0 0 0 0 0 0 0 0 0 127 0" result="hardAlpha"/>
<feOffset dx="4" dy="4"/>
<feGaussianBlur stdDeviation="5"/>
<feComposite in2="hardAlpha" operator="out"/>
<feColorMatrix type="matrix" values="0 0 0 0 0 0 0 0 0 0 0 0 0 0 0 0 0 0 0.25 0"/>
<feBlend mode="normal" in2="BackgroundImageFix" result="effect1_dropShadow_156_413"/>
<feBlend mode="normal" in="SourceGraphic" in2="effect1_dropShadow_156_413" result="shape"/>
</filter>
<clipPath id="clip0_156_413">
<rect width="24.4364" height="20.9007" fill="white" transform="translate(0 18.8357)"/>
</clipPath>
</defs>
</svg>
