<svg width="56" height="48" viewBox="0 0 56 48" fill="none" xmlns="http://www.w3.org/2000/svg">
<g filter="url(#filter0_d_156_371)">
<rect x="42" y="6.58618" width="26.9012" height="29.7818" rx="10" transform="rotate(90 42 6.58618)" fill="#FF8A00"/>
</g>
<path d="M0 29.776C0.10345 29.5464 0.0879004 29.2967 0.128563 29.0576C0.46044 27.0904 1.30837 25.3406 2.69329 23.8211C4.41068 21.9388 6.58014 20.7199 9.18552 20.2545C12.7865 19.6115 16.0228 20.3993 18.8632 22.5601C18.9152 22.5995 18.9648 22.6422 19.0163 22.6816C19.0389 22.694 19.0627 22.7044 19.0874 22.7127C19.0874 22.518 19.0874 22.3365 19.0874 22.1546C19.0808 21.6952 19.4049 21.3579 19.8558 21.3574C20.2953 21.3574 20.626 21.6902 20.626 22.1341C20.626 22.8882 20.626 23.6421 20.626 24.3959C20.626 24.7981 20.4466 25.0616 20.0938 25.1725C19.753 25.2835 19.4492 25.1831 19.1753 24.8707C17.9134 23.4122 16.198 22.3496 14.2623 21.8273C13.6341 21.6576 12.99 21.5434 12.3387 21.4861C12.2029 21.4733 12.2143 21.5321 12.2149 21.612C12.2149 21.9992 12.2149 22.3867 12.2149 22.7743C12.2176 22.8692 12.1998 22.9637 12.1626 23.0521C12.1254 23.1406 12.0695 23.2213 11.9981 23.2894C11.9268 23.3575 11.8415 23.4117 11.7473 23.4488C11.6531 23.4859 11.5518 23.5052 11.4495 23.5055C11.0201 23.5055 10.6924 23.192 10.6888 22.772C10.6852 22.3521 10.6888 21.9399 10.6846 21.5266C10.6815 21.5133 10.6761 21.5005 10.6685 21.4889C5.9391 21.8189 1.97213 25.3323 1.57567 29.9425H2.95999C3.40847 29.9425 3.7535 30.2493 3.75649 30.6454C3.75948 31.0415 3.42222 31.3549 2.97075 31.361C2.55256 31.3644 2.13498 31.3644 1.71799 31.361C1.60497 31.361 1.57089 31.3766 1.58524 31.4981C1.92808 34.4032 3.40129 36.6778 6.00488 38.3218C7.22106 39.0863 8.61394 39.5749 10.0711 39.7481C10.2111 39.7658 10.357 39.762 10.4897 39.798C10.693 39.8535 10.6996 39.7631 10.6966 39.6183C10.6888 39.2449 10.6918 38.871 10.6966 38.4976C10.6961 38.31 10.7758 38.1299 10.9184 37.9969C11.061 37.8639 11.2547 37.7889 11.4569 37.7884C11.6591 37.7878 11.8533 37.8619 11.9967 37.9942C12.14 38.1264 12.2209 38.3062 12.2215 38.4937C12.2268 38.8882 12.2244 39.2826 12.2215 39.6771C12.2215 39.7697 12.2173 39.8213 12.3614 39.808C14.6869 39.5911 16.6961 38.7378 18.3692 37.2261C19.9013 35.843 20.8491 34.1649 21.2156 32.2082C21.2664 31.9369 21.3005 31.6628 21.3472 31.3577H19.9395C19.8367 31.3599 19.7344 31.3429 19.6388 31.3077C19.5432 31.2725 19.4561 31.2199 19.3828 31.153C19.3095 31.086 19.2514 31.0061 19.212 30.918C19.1725 30.8298 19.1525 30.7353 19.1532 30.6398C19.1533 30.5466 19.1733 30.4542 19.2121 30.3682C19.251 30.2821 19.3078 30.2041 19.3794 30.1386C19.451 30.0731 19.5359 30.0215 19.6292 29.9867C19.7225 29.9519 19.8223 29.9346 19.9228 29.9358C20.6685 29.9319 21.4141 29.9303 22.1598 29.9386C22.5999 29.943 22.9049 30.2448 22.9091 30.6554C22.9557 35.5673 19.1927 39.9572 14.0208 41.0263C13.5639 41.1206 13.1065 41.2099 12.6376 41.2316C12.6059 41.2316 12.5778 41.2393 12.5731 41.2732H10.2912C10.2756 41.231 10.2362 41.2349 10.2003 41.2316C9.64655 41.1817 9.09827 41.0889 8.56123 40.9542C6.18487 40.3667 4.19959 39.2027 2.6293 37.4474C1.29992 35.9707 0.434144 34.1831 0.126771 32.2803C0.0867063 32.0406 0.101058 31.7921 0 31.5619V29.776Z" fill="#605350"/>
<path d="M10.6894 28.1647C10.6894 27.3353 10.6852 26.5059 10.6894 25.6765C10.6894 25.3093 10.9519 25.0491 11.3519 24.9842C11.6969 24.9287 12.0474 25.1256 12.1807 25.4457C12.2229 25.5713 12.2397 25.7029 12.2303 25.8341C12.2303 27.2924 12.2303 28.7507 12.2303 30.209C12.225 30.3392 12.2695 30.467 12.3559 30.5696C12.7745 31.0734 13.1871 31.5793 13.5889 32.093C13.9435 32.5457 13.7085 33.1183 13.1309 33.2409C13.0002 33.2734 12.862 33.2689 12.734 33.2279C12.6061 33.1868 12.4944 33.1112 12.4133 33.0106C11.868 32.356 11.337 31.6897 10.8042 31.0257C10.6965 30.8914 10.6906 30.7316 10.6906 30.5707C10.6906 29.7693 10.6906 28.9676 10.6906 28.1658L10.6894 28.1647Z" fill="#605350"/>
<defs>
<filter id="filter0_d_156_371" x="6.21814" y="0.586182" width="49.7819" height="46.9011" filterUnits="userSpaceOnUse" color-interpolation-filters="sRGB">
<feFlood flood-opacity="0" result="BackgroundImageFix"/>
<feColorMatrix in="SourceAlpha" type="matrix" values="0 0 0 0 0 0 0 0 0 0 0 0 0 0 0 0 0 0 127 0" result="hardAlpha"/>
<feOffset dx="4" dy="4"/>
<feGaussianBlur stdDeviation="5"/>
<feComposite in2="hardAlpha" operator="out"/>
<feColorMatrix type="matrix" values="0 0 0 0 0 0 0 0 0 0 0 0 0 0 0 0 0 0 0.25 0"/>
<feBlend mode="normal" in2="BackgroundImageFix" result="effect1_dropShadow_156_371"/>
<feBlend mode="normal" in="SourceGraphic" in2="effect1_dropShadow_156_371" result="shape"/>
</filter>
</defs>
</svg>
