<svg width="56" height="50" viewBox="0 0 56 50" fill="none" xmlns="http://www.w3.org/2000/svg">
<g filter="url(#filter0_d_156_380)">
<rect x="42" y="6.69214" width="29.2457" height="30.9057" rx="10" transform="rotate(90 42 6.69214)" fill="#FF8A00"/>
</g>
<g clip-path="url(#clip0_156_380)">
<path d="M0 38.0582V32.836C0.21872 32.4049 0.5788 32.2558 1.06406 32.2735C1.72023 32.2982 2.3792 32.2735 3.03677 32.2845C3.22103 32.2886 3.29206 32.2304 3.3441 32.0628C3.47955 31.6239 3.65832 31.1989 3.87789 30.7935C3.94822 30.6567 3.93837 30.5773 3.82374 30.4692C3.32089 29.9902 2.8286 29.5064 2.33349 29.0233C1.90026 28.6005 1.90097 28.1844 2.3377 27.7595C3.44045 26.6852 4.54437 25.6117 5.64946 24.5387C6.08268 24.1172 6.50886 24.1172 6.94912 24.5428C7.44141 25.0177 7.93371 25.4933 8.41616 25.975C8.51532 26.0735 8.59128 26.105 8.72983 26.0338C9.17015 25.8095 9.6306 25.6246 10.1054 25.4816C10.2651 25.4324 10.3031 25.3626 10.3017 25.212C10.2946 24.4594 10.296 23.7108 10.3017 22.9595C10.3017 22.3813 10.6146 22.0857 11.2159 22.0857C12.7594 22.0857 14.3029 22.0857 15.8463 22.0857C16.5257 22.0857 16.8232 22.3731 16.8246 23.0327C16.8246 23.7854 16.8246 24.534 16.8246 25.2853C16.8246 25.4255 16.8612 25.4905 17.0074 25.5391C17.455 25.682 17.8886 25.8636 18.3029 26.0817C18.4337 26.1502 18.5139 26.1337 18.6165 26.0297C19.175 25.4755 19.7418 24.9281 20.3044 24.3814C20.706 23.9934 21.1484 23.9913 21.5478 24.3814C22.6651 25.4661 23.7812 26.552 24.8961 27.6391C25.3181 28.0524 25.3181 28.467 24.8961 28.8831C24.3223 29.4469 23.7477 30.01 23.164 30.5643C23.0486 30.6738 23.0353 30.7572 23.1056 30.8927C23.3075 31.2785 23.4723 31.6817 23.5979 32.097C23.6429 32.2503 23.7196 32.2879 23.875 32.2865C24.6195 32.2788 25.3648 32.2788 26.1107 32.2865C26.6171 32.2906 26.9476 32.6205 26.9483 33.1076C26.9483 34.6773 26.9483 36.2472 26.9483 37.8174C26.9483 38.3148 26.6255 38.6268 26.1128 38.6275C25.3498 38.6275 24.5867 38.635 23.8236 38.622C23.6302 38.6186 23.5592 38.6857 23.4966 38.8533C23.3648 39.2127 23.211 39.5642 23.036 39.9057C22.9502 40.0713 22.9825 40.1514 23.1063 40.2677C23.683 40.8151 24.254 41.3696 24.8195 41.9311C25.2316 42.3369 25.233 42.7604 24.8195 43.1628C23.7031 44.248 22.5847 45.3323 21.4641 46.4157C21.0534 46.8132 20.6125 46.8078 20.1982 46.4089C19.6138 45.843 19.0294 45.2778 18.4506 44.7071C18.3507 44.6086 18.2762 44.5785 18.1376 44.649C17.7435 44.8501 17.3313 45.0157 16.9062 45.1437C16.7479 45.1909 16.7114 45.2668 16.7135 45.4174C16.7212 46.0914 16.7198 46.7653 16.7135 47.4393C16.7135 47.8773 16.5025 48.1516 16.1101 48.2536L10.775 48.2502C10.398 48.1489 10.199 47.9033 10.1962 47.505C10.1905 46.8139 10.1856 46.1228 10.1962 45.4324C10.1997 45.2497 10.1322 45.1779 9.9683 45.13C9.60106 45.0213 9.24468 44.8804 8.90354 44.7092C8.75515 44.6339 8.66583 44.649 8.54768 44.7673C8.00334 45.3147 7.44845 45.8457 6.89567 46.3808C6.46948 46.7914 6.03204 46.7955 5.61359 46.389C4.5085 45.3161 3.40482 44.2425 2.30254 43.1682C1.85174 42.7289 1.85174 42.3211 2.30254 41.8825C2.83492 41.3632 3.3645 40.8411 3.90391 40.3286C4.01151 40.2266 4.01644 40.1555 3.94963 40.0296C3.73144 39.633 3.54997 39.2183 3.4074 38.7904C3.36379 38.6535 3.29135 38.6173 3.14718 38.6186C2.42773 38.6275 1.70827 38.6036 0.990221 38.6296C0.521132 38.6453 0.189183 38.4886 0 38.0582ZM20.924 25.9627C20.3572 26.5149 19.7988 27.0575 19.2446 27.5987C18.8747 27.9573 18.5561 28.0017 18.113 27.7472C17.423 27.3476 16.6816 27.0388 15.9082 26.8289C15.4117 26.6921 15.2162 26.4266 15.2155 25.9114C15.2155 25.2203 15.2092 24.5292 15.2197 23.8381C15.2197 23.6643 15.1655 23.6273 14.9982 23.6287C14.0333 23.636 13.0686 23.636 12.1042 23.6287C11.929 23.6287 11.8854 23.6766 11.8876 23.8429C11.8974 24.534 11.8925 25.225 11.8911 25.9161C11.8911 26.3773 11.6801 26.6606 11.2286 26.7742C10.4093 26.9811 9.62254 27.2945 8.88947 27.7062C8.4675 27.9415 8.14751 27.895 7.79939 27.5597C7.34436 27.1218 6.89004 26.6832 6.44346 26.2371C6.33515 26.1289 6.27678 26.1112 6.15652 26.2295C5.46871 26.9138 4.77457 27.5896 4.07411 28.257C3.95806 28.3678 3.96017 28.4246 4.07411 28.5307C4.52139 28.9522 4.95813 29.3839 5.39838 29.8123C5.81191 30.2153 5.85271 30.4965 5.56225 30.996C5.17012 31.6683 4.873 32.3889 4.67893 33.1384C4.55234 33.6277 4.27806 33.8371 3.76045 33.8398C3.11202 33.8432 2.46289 33.8466 1.81376 33.8398C1.64146 33.8398 1.57324 33.8637 1.57605 34.0547C1.5866 35.0017 1.5852 35.9494 1.57605 36.8964C1.57605 37.0572 1.61966 37.0934 1.7793 37.0914C2.47203 37.0825 3.16547 37.0866 3.8582 37.0873C4.32869 37.0873 4.60438 37.2768 4.72886 37.7079C4.94659 38.4599 5.26435 39.1811 5.67407 39.853C5.93639 40.2848 5.88998 40.5927 5.52146 40.954C5.03338 41.433 4.54742 41.9119 4.04949 42.3807C3.9215 42.5011 3.93345 42.562 4.04949 42.6756C4.7373 43.3338 5.41925 43.9978 6.09533 44.6674C6.22474 44.7961 6.29226 44.7961 6.42025 44.6674C6.92099 44.1652 7.43227 43.6732 7.94285 43.1805C8.28535 42.8507 8.59479 42.8035 9.00973 43.0225C9.68227 43.3832 10.3967 43.6643 11.1379 43.86C11.5767 43.9736 11.7835 44.2562 11.7849 44.703C11.7849 45.3188 11.7919 45.9347 11.7807 46.5457C11.7771 46.7195 11.8348 46.7558 12.0015 46.751C12.9664 46.7441 13.9311 46.7441 14.8955 46.751C15.0678 46.751 15.1184 46.7086 15.1156 46.5382C15.1044 45.9408 15.11 45.3435 15.1156 44.7461C15.1156 44.2535 15.3266 43.9729 15.8041 43.8518C16.553 43.6575 17.2734 43.371 17.9477 42.9992C18.4246 42.7385 18.7171 42.7775 19.0997 43.1484C19.6279 43.6602 20.1546 44.1707 20.6786 44.6886C20.7904 44.7995 20.853 44.8255 20.9831 44.6989C21.6629 44.0215 22.351 43.3514 23.0472 42.6886C23.1696 42.5716 23.171 42.5113 23.0472 42.3943C22.5008 41.8764 21.9628 41.3495 21.4297 40.8206C21.1146 40.5113 21.0569 40.191 21.2721 39.825C21.6773 39.1407 21.9946 38.4106 22.2166 37.6511C22.3249 37.2789 22.6196 37.0859 23.0219 37.0852C23.7322 37.0852 24.4432 37.0784 25.1528 37.0886C25.328 37.0886 25.368 37.0421 25.3638 36.8772C25.3554 35.9302 25.3554 34.9832 25.3638 34.0362C25.3638 33.8815 25.3287 33.8343 25.1634 33.8364C24.4967 33.8466 23.8272 33.8432 23.164 33.8398C22.6541 33.8398 22.3819 33.6345 22.2567 33.161C22.0633 32.4291 21.777 31.7235 21.4044 31.0604C21.1385 30.5862 21.1814 30.2967 21.5703 29.9177C22.0973 29.404 22.6245 28.8913 23.152 28.3795C23.2223 28.311 23.2927 28.2679 23.1808 28.1612C22.4297 27.4366 21.6829 26.7037 20.924 25.9627Z" fill="#605350"/>
<path d="M18.9189 38.2701C17.9414 39.7823 16.5861 40.743 14.8068 41.1501C11.7637 41.846 8.452 40.0026 7.52718 37.0788C7.39145 36.6512 7.59751 36.216 8.00612 36.0778C8.42809 35.9341 8.88029 36.1462 9.03713 36.5855C9.25591 37.2146 9.6065 37.7926 10.0667 38.2831C12.0359 40.3776 15.6226 40.1546 17.3007 37.8322C17.3204 37.8048 17.3337 37.774 17.3633 37.722C17.2938 37.7141 17.2248 37.7026 17.1565 37.6878C16.9969 37.6392 16.8564 37.5442 16.7538 37.4157C16.6512 37.2872 16.5915 37.1312 16.5826 36.9687C16.5721 36.6491 16.7859 36.3118 17.1115 36.2208C17.639 36.073 18.1713 35.9375 18.7101 35.8355C19.0293 35.7746 19.2881 35.9416 19.464 36.2023C19.7087 36.5643 19.9464 36.9317 20.1806 37.3005C20.4148 37.6693 20.3677 38.0806 20.0639 38.344C19.7601 38.6075 19.3395 38.5945 18.9885 38.3201L18.9189 38.2701Z" fill="#605350"/>
<path d="M8.03144 32.1124C8.77267 30.9035 9.91303 29.9746 11.2665 29.4773C14.5298 28.2491 18.3633 30.0391 19.4126 33.2865C19.5533 33.7252 19.3423 34.1761 18.9267 34.3075C18.4899 34.4477 18.0651 34.2274 17.8928 33.76C17.3668 32.332 16.3801 31.3508 14.8962 30.8725C13.9838 30.5815 13.0014 30.5712 12.0828 30.8429C11.1641 31.1146 10.3538 31.6551 9.76221 32.3909C9.69892 32.4695 9.61734 32.5393 9.59483 32.6447C10.2004 32.787 10.488 33.2079 10.3066 33.6916C10.2669 33.8099 10.1968 33.9163 10.103 34.0008C10.0093 34.0854 9.89485 34.1452 9.77065 34.1747C9.29805 34.2938 8.82544 34.4115 8.35143 34.5237C7.97166 34.6133 7.6805 34.4703 7.47303 34.1658C7.23181 33.8114 7.00113 33.4494 6.76975 33.0895C6.52361 32.7063 6.57002 32.2916 6.88439 32.0261C7.19876 31.7607 7.60455 31.7839 7.96041 32.0631C7.98151 32.0809 8.00331 32.0953 8.03144 32.1124Z" fill="#605350"/>
</g>
<defs>
<filter id="filter0_d_156_380" x="5.09436" y="0.692139" width="50.9056" height="49.2456" filterUnits="userSpaceOnUse" color-interpolation-filters="sRGB">
<feFlood flood-opacity="0" result="BackgroundImageFix"/>
<feColorMatrix in="SourceAlpha" type="matrix" values="0 0 0 0 0 0 0 0 0 0 0 0 0 0 0 0 0 0 127 0" result="hardAlpha"/>
<feOffset dx="4" dy="4"/>
<feGaussianBlur stdDeviation="5"/>
<feComposite in2="hardAlpha" operator="out"/>
<feColorMatrix type="matrix" values="0 0 0 0 0 0 0 0 0 0 0 0 0 0 0 0 0 0 0.25 0"/>
<feBlend mode="normal" in2="BackgroundImageFix" result="effect1_dropShadow_156_380"/>
<feBlend mode="normal" in="SourceGraphic" in2="effect1_dropShadow_156_380" result="shape"/>
</filter>
<clipPath id="clip0_156_380">
<rect width="26.9434" height="26.1672" fill="white" transform="translate(0 22.0847)"/>
</clipPath>
</defs>
</svg>
