<svg width="109" height="63" viewBox="0 0 109 63" fill="none" xmlns="http://www.w3.org/2000/svg">
<g clip-path="url(#clip0_156_5)">
<path fill-rule="evenodd" clip-rule="evenodd" d="M48.6219 45.4831V43.8036L46.8864 41.5215H47.6042L48.4937 42.7111C48.6578 42.9368 48.8116 43.1625 48.9526 43.377C49.0885 43.1693 49.2551 42.9368 49.4499 42.6795L50.3215 41.5124H51.0162L49.2217 43.7946V45.474L48.6219 45.4831ZM39.824 43.2686H41.1057C41.3217 43.2757 41.5375 43.2505 41.744 43.1941C41.8872 43.1531 42.0096 43.0692 42.0901 42.9571C42.1684 42.8517 42.2102 42.7286 42.2106 42.6027C42.2115 42.5172 42.1913 42.4326 42.1515 42.3547C42.1116 42.2768 42.0531 42.2073 41.9799 42.1512C41.7699 42.0138 41.51 41.9487 41.2493 41.9684H39.8291L39.824 43.2686ZM39.2267 45.4831V41.5215H41.2134C41.5223 41.5102 41.831 41.5461 42.126 41.6275C42.3409 41.6977 42.5219 41.8308 42.6387 42.0045C42.7637 42.1836 42.8286 42.3902 42.8258 42.6005C42.833 42.8642 42.7215 43.1198 42.5156 43.3115C42.253 43.5254 41.9161 43.6551 41.5595 43.6795C41.6893 43.7292 41.8102 43.7953 41.9183 43.8759C42.108 44.0321 42.2735 44.2097 42.4105 44.4041L43.1796 45.4831H42.4362L41.8389 44.6569C41.6671 44.4199 41.5236 44.237 41.4108 44.1106C41.3263 44.0092 41.2242 43.92 41.1083 43.8465C41.0258 43.7983 40.9349 43.7625 40.8391 43.7404C40.7297 43.7261 40.619 43.72 40.5084 43.7224H39.8188V45.4831H39.2267ZM31.0465 43.5621C31.0189 43.974 31.1753 44.3791 31.4823 44.6907C31.6245 44.8218 31.7954 44.9261 31.9846 44.9974C32.1739 45.0686 32.3775 45.1054 32.5834 45.1054C32.7892 45.1054 32.9929 45.0686 33.1821 44.9974C33.3713 44.9261 33.5422 44.8218 33.6844 44.6907C33.994 44.3609 34.149 43.9394 34.1176 43.5124C34.1252 43.2226 34.0623 42.9348 33.933 42.6682C33.819 42.4388 33.6297 42.2447 33.3896 42.1106C33.1492 41.9783 32.8707 41.9093 32.5872 41.912C32.1816 41.9087 31.791 42.0466 31.5003 42.2957C31.1978 42.5455 31.0465 42.9676 31.0465 43.5621ZM30.4287 43.5621C30.3926 42.9985 30.6089 42.445 31.0312 42.0203C31.2308 41.8362 31.4725 41.6914 31.7402 41.5953C32.0079 41.4992 32.2957 41.454 32.5846 41.4628C32.979 41.4582 33.3673 41.5487 33.7075 41.7246C34.0398 41.8966 34.3072 42.151 34.4765 42.456C34.6539 42.7874 34.7417 43.1506 34.7329 43.5169C34.7403 43.8902 34.6453 44.2596 34.456 44.5937C34.2894 44.8974 34.0209 45.1487 33.6869 45.3138C33.3524 45.4754 32.9765 45.5593 32.5949 45.5576C32.1949 45.5635 31.8011 45.4696 31.4593 45.2867C31.1261 45.1136 30.8585 44.8575 30.6902 44.5508C30.5166 44.2405 30.4271 43.899 30.4287 43.5531V43.5621ZM24.3148 45.4921V41.9865H22.8331V41.5215H26.3938V41.9865H24.9121V45.4831L24.3148 45.4921ZM15.0657 44.2099L15.6245 44.1648C15.6411 44.3397 15.7053 44.5085 15.8117 44.6569C15.9257 44.7956 16.0822 44.9028 16.2628 44.9661C16.481 45.047 16.7158 45.087 16.9524 45.0835C17.1579 45.0873 17.3624 45.0567 17.5548 44.9932C17.7092 44.9476 17.8441 44.8618 17.9419 44.7472C18.0246 44.6493 18.0696 44.5306 18.0701 44.4086C18.0718 44.2911 18.0285 44.1766 17.9471 44.0835C17.8371 43.978 17.6974 43.9001 17.542 43.8578C17.4215 43.8172 17.1549 43.754 16.7397 43.6659C16.4413 43.6116 16.1507 43.5283 15.8732 43.4176C15.6788 43.334 15.5133 43.2062 15.3938 43.0474C15.2881 42.9003 15.2329 42.7294 15.2349 42.5553C15.2355 42.3551 15.3033 42.1596 15.4297 41.9932C15.5665 41.8126 15.7635 41.6738 15.9937 41.5959C16.256 41.5033 16.5365 41.4573 16.8191 41.4605C17.1209 41.4552 17.4209 41.5036 17.701 41.6027C17.9398 41.6869 18.1444 41.8324 18.288 42.0203C18.4261 42.2066 18.5024 42.4232 18.5085 42.6456L17.9368 42.684C17.9306 42.5761 17.9 42.4704 17.8467 42.3731C17.7934 42.2758 17.7186 42.1889 17.6266 42.1174C17.3983 41.9754 17.121 41.9076 16.8422 41.9255C16.5653 41.9055 16.2886 41.9666 16.0552 42.0993C15.9779 42.1471 15.9144 42.2102 15.8699 42.2835C15.8253 42.3568 15.801 42.4383 15.7988 42.5214C15.7974 42.5876 15.8125 42.6533 15.8431 42.7137C15.8736 42.7742 15.9189 42.828 15.9757 42.8713C16.2495 43.0189 16.555 43.115 16.873 43.1535C17.2121 43.2124 17.5449 43.297 17.8676 43.4063C18.0995 43.4911 18.3001 43.631 18.4469 43.8104C18.5733 43.9764 18.6386 44.1726 18.6341 44.3725C18.6329 44.5837 18.5616 44.7901 18.429 44.9661C18.2842 45.1578 18.0794 45.3084 17.8394 45.3996C17.5669 45.5063 17.2712 45.5595 16.9729 45.5553C16.6227 45.5652 16.2738 45.5122 15.9475 45.3996C15.6831 45.3033 15.4578 45.1388 15.3015 44.9278C15.1469 44.7132 15.065 44.4641 15.0657 44.2099ZM40.552 47.7201C46.8198 51.0768 42.9617 56.6501 37.0554 57.4582C29.0726 58.5485 23.5842 58.1828 15.8834 50.9503L11.7665 55.3183C19.9697 66.9097 54.4128 66.1535 50.0164 47.8036L40.552 47.7201ZM23.7816 38.2686C18.5059 34.1354 21.1617 29.7675 27.05 28.8465C35.0328 27.5959 39.9239 29.3589 44.9228 34.1445L49.4473 30.1603C46.6659 26.6072 42.3926 24.4831 36.4453 23.614C24.9736 21.93 11.346 26.3792 14.3171 38.1874L23.7816 38.2686ZM86.0977 45.4808V41.5192H89.4302V41.9842H86.7078V43.2009H89.2559V43.6659H86.7078V45.0203H89.5277V45.4853L86.0977 45.4808ZM81.6859 45.4808V41.5192H80.7682L79.2813 43.5801L77.7971 41.5192H76.8819V45.4808H77.4689V42.1061L79.007 44.2754H79.5736L81.1117 42.1061V45.4808H81.6859ZM67.8738 43.5531C67.8556 43.2723 67.901 42.9912 68.0076 42.7261C68.1141 42.461 68.2795 42.2172 68.4941 42.009C68.7012 41.8243 68.9497 41.6795 69.2238 41.5839C69.4978 41.4883 69.7915 41.444 70.0861 41.4537C70.491 41.4489 70.8902 41.5393 71.2422 41.7156C71.5788 41.8854 71.8508 42.1391 72.0241 42.4447C72.2079 42.7746 72.3002 43.1382 72.2932 43.5056C72.3007 43.8805 72.2029 44.2511 72.0087 44.5846C71.8316 44.891 71.5514 45.1417 71.2063 45.3025C70.8611 45.4653 70.4752 45.5499 70.0835 45.5485C69.674 45.553 69.2708 45.4594 68.9171 45.2777C68.5862 45.1021 68.3193 44.8467 68.1481 44.5418C67.9705 44.2355 67.8766 43.8969 67.8738 43.5531ZM68.507 43.5531C68.4935 43.7579 68.5262 43.9632 68.6032 44.1569C68.6802 44.3506 68.7999 44.529 68.9556 44.6817C69.1039 44.8126 69.2801 44.9165 69.4741 44.9874C69.6681 45.0582 69.8761 45.0947 70.0861 45.0947C70.2961 45.0947 70.5041 45.0582 70.698 44.9874C70.892 44.9165 71.0682 44.8126 71.2166 44.6817C71.5346 44.3554 71.6947 43.9324 71.6626 43.5034C71.67 43.2137 71.6044 42.9261 71.4704 42.6614C71.3537 42.43 71.1596 42.2355 70.9141 42.1038C70.6665 41.9706 70.3813 41.9017 70.0912 41.9052C69.677 41.8984 69.2764 42.0354 68.9761 42.2867C68.6633 42.544 68.507 42.9692 68.507 43.5621V43.5531ZM59.6142 45.4718V41.5192H60.2269V43.1625H62.6135V41.5305H63.2261V45.4921H62.6135V43.614H60.2269V45.4786L59.6142 45.4718ZM54.1847 24.0497H60.8805V39.3454H88.5356V24.6524L54.2872 6.25282L10.6718 29.912H0L54.2872 0L109 29.912H98.3333L95.2289 28.2461V62.7675H88.5356V48.2551H60.8805V62.7675H54.1847V24.0497Z" fill="white"/>
</g>
<defs>
<clipPath id="clip0_156_5">
<rect width="109" height="63" fill="white"/>
</clipPath>
</defs>
</svg>
